<?xml version="1.0" encoding="UTF-8"?>
<svg id="Layer_3" data-name="Layer 3" xmlns="http://www.w3.org/2000/svg" xmlns:xlink="http://www.w3.org/1999/xlink" viewBox="0 0 38 36.25">
  <defs>
    <style>
      .cls-1, .cls-2 {
        stroke: #231f20;
        stroke-miterlimit: 10;
      }

      .cls-1, .cls-3, .cls-4 {
        fill: none;
      }

      .cls-2 {
        fill: #fff;
      }

      .cls-4 {
        clip-path: url(#clippath);
      }
    </style>
    <clipPath id="clippath">
      <path class="cls-3" d="m36.37,21.36l.31,1.1c1.45,5.09-1.52,10.45-6.61,11.91l-3.54,1.01c-5.1,1.46-10.45-1.53-11.91-6.61l-.31-1.1c-1.21-4.24.65-8.66,4.26-10.87l-2.33-8.15c-.05-.17-.08-.35-.1-.52-.52-.16-.96-.58-1.12-1.14-.25-.88.26-1.82,1.15-2.08l6.58-1.88c.89-.26,1.82.27,2.08,1.15.16.56.01,1.14-.35,1.55.08.16.14.32.19.5l2.33,8.15c4.22-.03,8.15,2.74,9.36,6.98Z"/>
    </clipPath>
  </defs>
  <g class="cls-4">
    <path class="cls-2" d="m7.61,20.61c2.39-2.31,7.62,5.58,17.1,1.63,2.6-1.08,5.4-3.01,8.6-3.12,3.38-.12,7.92.38,9.51,3.51,2.03,3.99-4.26,13.28-12.82,16.05-.52.17-9.96,3.05-17.06-3.03-5.31-4.55-7.72-12.73-5.33-15.03Z"/>
  </g>
  <path class="cls-1" d="m36.37,21.36l.31,1.1c1.45,5.09-1.52,10.45-6.61,11.91l-3.54,1.01c-5.1,1.46-10.45-1.53-11.91-6.61l-.31-1.1c-1.21-4.24.65-8.66,4.26-10.87l-2.33-8.15c-.05-.17-.08-.35-.1-.52-.52-.16-.96-.58-1.12-1.14-.25-.88.26-1.82,1.15-2.08l6.58-1.88c.89-.26,1.82.27,2.08,1.15.16.56.01,1.14-.35,1.55.08.16.14.32.19.5l2.33,8.15c4.22-.03,8.15,2.74,9.36,6.98Z"/>
  <rect class="cls-2" x="26.31" y="26.67" width="1.29" height=".6" rx=".3" ry=".3" transform="translate(44.41 -6.93) rotate(72.23)"/>
  <rect class="cls-2" x="24.06" y="27.39" width="1.29" height=".6" rx=".3" ry=".3" transform="translate(43.53 -4.29) rotate(72.23)"/>
</svg>